<svg version="1.1" xmlns="http://www.w3.org/2000/svg" xmlns:xlink="http://www.w3.org/1999/xlink" x="0px" y="0px" viewBox="0 0 1000 1000" enable-background="new 0 0 1000 1000" xml:space="preserve">
<g><path d="M837,316.2v551.2c0,67.7-54.9,122.5-122.5,122.5H285.6C217.9,990,163,935.2,163,867.5V316.2c-33.8,0-61.3-27.4-61.3-61.3v-61.3c0-33.8,27.4-61.2,61.3-61.2h183.8V71.3c0-33.8,27.4-61.3,61.3-61.3h183.8c33.8,0,61.3,27.4,61.3,61.3v61.2H837c33.8,0,61.3,27.4,61.3,61.2V255C898.2,288.8,870.8,316.2,837,316.2z M224.3,316.2v551.2c0,33.8,27.4,61.3,61.3,61.3h428.9c33.8,0,61.3-27.4,61.3-61.3V316.2C741.2,316.2,266.4,316.2,224.3,316.2z M408.1,132.5v-30.6c0-16.9,13.7-30.6,30.6-30.6h122.5c16.9,0,30.6,13.7,30.6,30.6v30.6C562.2,132.5,408.1,132.5,408.1,132.5 M806.3,193.7H193.7c-16.9,0-30.6,13.7-30.6,30.6c0,16.9,13.7,30.6,30.6,30.6h612.7c16.9,0,30.6-13.7,30.6-30.6C837,207.5,823.3,193.7,806.3,193.7z M346.8,438.7c16.9,0,30.6,13.7,30.6,30.6v367.5c0,16.9-13.7,30.6-30.6,30.6c-16.9,0-30.6-13.7-30.6-30.6V469.4C316.2,452.5,329.9,438.7,346.8,438.7z M500,438.7c16.9,0,30.6,13.7,30.6,30.6v367.5c0,16.9-13.7,30.6-30.6,30.6c-16.9,0-30.6-13.7-30.6-30.6V469.4C469.4,452.5,483.1,438.7,500,438.7z M653.2,438.7c16.9,0,30.6,13.7,30.6,30.6v367.5c0,16.9-13.7,30.6-30.6,30.6c-16.9,0-30.6-13.7-30.6-30.6V469.4C622.5,452.5,636.3,438.7,653.2,438.7z"/></g>
</svg>